<svg width="220" height="37" viewBox="0 0 220 37" fill="none" xmlns="http://www.w3.org/2000/svg">
<g clip-path="url(#clip0_0_5)">
<mask id="mask0_0_5" style="mask-type:luminance" maskUnits="userSpaceOnUse" x="-1" y="-1" width="15" height="15">
<path d="M-0.00219727 -0.000976562H13.2005V13.2017H-0.00219727V-0.000976562Z" fill="white"/>
</mask>
<g mask="url(#mask0_0_5)">
<path d="M6.59916 -0.000976562C5.72653 -0.000976562 4.88054 0.165557 4.07452 0.498621C3.26184 0.838348 2.54908 1.3113 1.92958 1.9308C1.31008 2.5503 0.837128 3.26306 0.497401 4.07574C0.164336 4.88176 -0.00219727 5.72109 -0.00219727 6.60038C-0.00219727 7.47301 0.164336 8.319 0.497401 9.12501C0.837128 9.93769 1.31008 10.6505 1.92958 11.27C2.54908 11.8895 3.26184 12.3624 4.07452 12.6955C4.88054 13.0352 5.72653 13.2017 6.59916 13.2017C7.47179 13.2017 8.31778 13.0352 9.12379 12.6955C9.93647 12.3624 10.6492 11.8895 11.2687 11.27C11.8882 10.6505 12.3612 9.93769 12.7009 9.12501C13.034 8.319 13.2005 7.47301 13.2005 6.60038C13.2005 5.72109 13.034 4.88176 12.7009 4.07574C12.3612 3.26306 11.8882 2.5503 11.2687 1.9308C10.6492 1.3113 9.93647 0.838348 9.12379 0.498621C8.31778 0.165557 7.47179 -0.000976562 6.59916 -0.000976562Z" fill="#FF1616"/>
</g>
<mask id="mask1_0_5" style="mask-type:luminance" maskUnits="userSpaceOnUse" x="27" y="-1" width="15" height="15">
<path d="M27.8738 -0.00158691H41.0766V13.2011H27.8738V-0.00158691Z" fill="white"/>
</mask>
<g mask="url(#mask1_0_5)">
<path d="M34.4752 -0.00158691C33.6026 -0.00158691 32.7566 0.164947 31.9506 0.498011C31.1445 0.837738 30.4251 1.31069 29.8123 1.93019C29.1928 2.54969 28.7132 3.26245 28.3801 4.07513C28.0404 4.88115 27.8738 5.72048 27.8738 6.59977C27.8738 7.4724 28.0404 8.31839 28.3801 9.1244C28.7132 9.93708 29.1928 10.6498 29.8123 11.2693C30.4251 11.8888 31.1445 12.3618 31.9506 12.6949C32.7566 13.0346 33.6026 13.2011 34.4752 13.2011C35.3545 13.2011 36.1938 13.0346 36.9998 12.6949C37.8125 12.3618 38.5253 11.8888 39.1448 11.2693C39.7643 10.6498 40.2439 9.93708 40.577 9.1244C40.91 8.31839 41.0766 7.4724 41.0766 6.59977C41.0766 5.72048 40.91 4.88115 40.577 4.07513C40.2439 3.26245 39.7643 2.54969 39.1448 1.93019C38.5253 1.31069 37.8125 0.837738 36.9998 0.498011C36.1938 0.164947 35.3545 -0.00158691 34.4752 -0.00158691Z" fill="#5E17EB"/>
</g>
<mask id="mask2_0_5" style="mask-type:luminance" maskUnits="userSpaceOnUse" x="53" y="-1" width="14" height="15">
<path d="M53.6864 -0.00158691H66.8891V13.2011H53.6864V-0.00158691Z" fill="white"/>
</mask>
<g mask="url(#mask2_0_5)">
<path d="M60.2878 -0.00158691C59.4151 -0.00158691 58.5758 0.164947 57.7631 0.498011C56.9571 0.837738 56.2443 1.31069 55.6248 1.93019C55.0053 2.54969 54.5257 3.26245 54.1927 4.07513C53.8596 4.88115 53.6864 5.72048 53.6864 6.59977C53.6864 7.4724 53.8596 8.31839 54.1927 9.1244C54.5257 9.93708 55.0053 10.6498 55.6248 11.2693C56.2443 11.8888 56.9571 12.3618 57.7631 12.6949C58.5758 13.0346 59.4151 13.2011 60.2878 13.2011C61.167 13.2011 62.0064 13.0346 62.8191 12.6949C63.6251 12.3618 64.3378 11.8888 64.9573 11.2693C65.5768 10.6498 66.0564 9.93708 66.3895 9.1244C66.7226 8.31839 66.8891 7.4724 66.8891 6.59977C66.8891 5.72048 66.7226 4.88115 66.3895 4.07513C66.0564 3.26245 65.5768 2.54969 64.9573 1.93019C64.3378 1.31069 63.6251 0.837738 62.8191 0.498011C62.0064 0.164947 61.167 -0.00158691 60.2878 -0.00158691Z" fill="#FFDE59"/>
</g>
<path d="M9.64627 36.1161H6.55542V17.8108H9.64627V36.1161Z" fill="#5E17EB"/>
<path d="M45.2965 36.1161H42.4454L42.4188 22.4471L36.6368 34.1976H34.6384L28.8564 22.4471V36.1161H25.952V17.8108H29.6291L35.6509 29.961L41.6727 17.8108H45.2965V36.1161Z" fill="#5E17EB"/>
<path d="M61.6332 17.8108H68.934C71.2255 17.8108 72.9974 18.3637 74.263 19.4628C75.542 20.5486 76.1815 22.0874 76.1815 24.0724C76.1815 26.1374 75.542 27.7428 74.263 28.8952C72.9974 30.0343 71.2255 30.6005 68.934 30.6005H64.724V36.1161H61.6332V17.8108ZM64.724 20.5819V27.8294H68.8007C71.745 27.8294 73.2239 26.6037 73.2239 24.1524C73.2239 21.7743 71.745 20.5819 68.8007 20.5819H64.724Z" fill="#5E17EB"/>
<path d="M103.81 20.5819H93.8182V25.5379H102.771V28.309H93.8182V33.345H104.13V36.1161H90.7274V17.8108H103.81V20.5819Z" fill="#5E17EB"/>
<path d="M130.994 36.1161L127.637 30.5739C127.457 30.5938 127.184 30.6005 126.811 30.6005H122.468V36.1161H119.377V17.8108H126.811C129.136 17.8108 130.941 18.3637 132.22 19.4628C133.512 20.5486 134.165 22.0874 134.165 24.0724C134.165 25.5312 133.832 26.7636 133.179 27.7761C132.54 28.7886 131.607 29.528 130.382 29.9877L134.485 36.1161H130.994ZM122.468 27.8294H126.811C129.775 27.8294 131.261 26.6037 131.261 24.1524C131.261 21.7743 129.775 20.5819 126.811 20.5819H122.468V27.8294Z" fill="#5E17EB"/>
<path d="M152.869 36.1161H149.778V17.8108H152.869V36.1161Z" fill="#5E17EB"/>
<path d="M184.736 17.8108V28.5488C184.736 30.9336 184.023 32.8121 182.604 34.1976C181.199 35.5698 179.253 36.2493 176.769 36.2493C174.297 36.2493 172.352 35.5698 170.934 34.1976C169.528 32.8121 168.829 30.9336 168.829 28.5488V17.8108H171.893V28.5488C171.893 30.0809 172.326 31.2866 173.198 32.1726C174.084 33.0452 175.29 33.4782 176.822 33.4782C178.314 33.4782 179.487 33.0452 180.339 32.1726C181.205 31.3066 181.645 30.0942 181.645 28.5488V17.8108H184.736Z" fill="#5E17EB"/>
<path d="M219.992 36.1161H217.141L217.114 22.4471L211.332 34.1976H209.334L203.552 22.4471V36.1161H200.648V17.8108H204.325L210.347 29.961L216.368 17.8108H219.992V36.1161Z" fill="#5E17EB"/>
</g>
<defs>
<clipPath id="clip0_0_5">
<rect width="220" height="36.2546" rx="10" fill="white"/>
</clipPath>
</defs>
</svg>
